<svg xmlns="http://www.w3.org/2000/svg" xmlns:xlink="http://www.w3.org/1999/xlink" width="1920" zoomAndPan="magnify" viewBox="0 0 1440 809.999993" height="1080" preserveAspectRatio="xMidYMid meet" version="1.0"><defs><g/><clipPath id="6a90ad6acc"><path d="M 107 237.113281 L 132 237.113281 L 132 261 L 107 261 Z M 107 237.113281 " clip-rule="nonzero"/></clipPath><clipPath id="dec0520845"><path d="M 183 237.113281 L 207 237.113281 L 207 261 L 183 261 Z M 183 237.113281 " clip-rule="nonzero"/></clipPath><clipPath id="0c990bd2dd"><path d="M 154 415 L 332 415 L 332 525.113281 L 154 525.113281 Z M 154 415 " clip-rule="nonzero"/></clipPath></defs><path fill="#da2f47" d="M 766.648438 340.589844 L 683.527344 204.609375 L 606.507812 339.660156 C 588.574219 368.28125 587.007812 405.492188 605.847656 436.3125 C 632.628906 480.121094 690.328125 494.1875 734.742188 467.761719 C 779.136719 441.34375 793.429688 384.433594 766.648438 340.589844 Z M 766.648438 340.589844 " fill-opacity="1" fill-rule="nonzero"/><g fill="#da2f47" fill-opacity="1"><g transform="translate(394.343893, 481.928262)"><g><path d="M 77.765625 -45.796875 L 162.140625 -45.796875 L 162.140625 0 L 14.40625 0 L 14.40625 -42.90625 L 97.921875 -157.53125 L 14.40625 -157.53125 L 14.40625 -203.046875 L 162.140625 -203.046875 L 162.140625 -160.125 Z M 77.765625 -45.796875 "/></g></g></g><g fill="#da2f47" fill-opacity="1"><g transform="translate(570.887709, 481.928262)"><g><path d="M 113.46875 2.015625 C 94.457031 2.015625 76.984375 -2.445312 61.046875 -11.375 C 45.117188 -20.300781 32.5 -32.679688 23.1875 -48.515625 C 13.875 -64.359375 9.21875 -82.265625 9.21875 -102.234375 C 9.21875 -122.203125 13.875 -140.109375 23.1875 -155.953125 C 32.5 -171.796875 45.117188 -184.128906 61.046875 -192.953125 C 76.984375 -201.785156 94.457031 -206.203125 113.46875 -206.203125 C 132.664062 -206.203125 150.1875 -201.785156 166.03125 -192.953125 C 181.875 -184.128906 194.398438 -171.796875 203.609375 -155.953125 C 212.828125 -140.109375 217.4375 -122.203125 217.4375 -102.234375 C 217.4375 -82.265625 212.828125 -64.359375 203.609375 -48.515625 C 194.398438 -32.679688 181.828125 -20.300781 165.890625 -11.375 C 149.953125 -2.445312 132.476562 2.015625 113.46875 2.015625 Z M 113.46875 -50.40625 C 127.875 -50.40625 139.25 -55.109375 147.59375 -64.515625 C 155.945312 -73.921875 160.125 -86.492188 160.125 -102.234375 C 160.125 -118.367188 155.945312 -131.09375 147.59375 -140.40625 C 139.25 -149.71875 127.875 -154.375 113.46875 -154.375 C 98.875 -154.375 87.445312 -149.71875 79.1875 -140.40625 C 70.9375 -131.09375 66.8125 -118.367188 66.8125 -102.234375 C 66.8125 -86.304688 70.9375 -73.6875 79.1875 -64.375 C 87.445312 -55.0625 98.875 -50.40625 113.46875 -50.40625 Z M 113.46875 -50.40625 "/></g></g></g><g fill="#da2f47" fill-opacity="1"><g transform="translate(797.543461, 481.928262)"><g><path d="M 113.46875 2.015625 C 94.457031 2.015625 76.984375 -2.445312 61.046875 -11.375 C 45.117188 -20.300781 32.5 -32.679688 23.1875 -48.515625 C 13.875 -64.359375 9.21875 -82.265625 9.21875 -102.234375 C 9.21875 -122.203125 13.875 -140.109375 23.1875 -155.953125 C 32.5 -171.796875 45.117188 -184.128906 61.046875 -192.953125 C 76.984375 -201.785156 94.457031 -206.203125 113.46875 -206.203125 C 132.664062 -206.203125 150.1875 -201.785156 166.03125 -192.953125 C 181.875 -184.128906 194.398438 -171.796875 203.609375 -155.953125 C 212.828125 -140.109375 217.4375 -122.203125 217.4375 -102.234375 C 217.4375 -82.265625 212.828125 -64.359375 203.609375 -48.515625 C 194.398438 -32.679688 181.828125 -20.300781 165.890625 -11.375 C 149.953125 -2.445312 132.476562 2.015625 113.46875 2.015625 Z M 113.46875 -50.40625 C 127.875 -50.40625 139.25 -55.109375 147.59375 -64.515625 C 155.945312 -73.921875 160.125 -86.492188 160.125 -102.234375 C 160.125 -118.367188 155.945312 -131.09375 147.59375 -140.40625 C 139.25 -149.71875 127.875 -154.375 113.46875 -154.375 C 98.875 -154.375 87.445312 -149.71875 79.1875 -140.40625 C 70.9375 -131.09375 66.8125 -118.367188 66.8125 -102.234375 C 66.8125 -86.304688 70.9375 -73.6875 79.1875 -64.375 C 87.445312 -55.0625 98.875 -50.40625 113.46875 -50.40625 Z M 113.46875 -50.40625 "/></g></g></g><g fill="#da2f47" fill-opacity="1"><g transform="translate(1024.199212, 481.928262)"><g><path d="M 145.734375 -104.25 C 157.628906 -101.5625 167.082031 -95.65625 174.09375 -86.53125 C 181.101562 -77.414062 184.609375 -67.003906 184.609375 -55.296875 C 184.609375 -38.015625 178.65625 -24.476562 166.75 -14.6875 C 154.84375 -4.894531 138.140625 0 116.640625 0 L 16.125 0 L 16.125 -203.046875 L 113.46875 -203.046875 C 134.207031 -203.046875 150.476562 -198.4375 162.28125 -189.21875 C 174.09375 -180 180 -167.039062 180 -150.34375 C 180 -138.4375 176.878906 -128.5 170.640625 -120.53125 C 164.398438 -112.5625 156.097656 -107.132812 145.734375 -104.25 Z M 72.578125 -122.40625 L 101.09375 -122.40625 C 115.300781 -122.40625 122.40625 -128.257812 122.40625 -139.96875 C 122.40625 -152.0625 115.300781 -158.109375 101.09375 -158.109375 L 72.578125 -158.109375 Z M 105.40625 -45.5 C 119.613281 -45.5 126.71875 -51.453125 126.71875 -63.359375 C 126.71875 -69.503906 124.84375 -74.207031 121.09375 -77.46875 C 117.351562 -80.738281 112.03125 -82.375 105.125 -82.375 L 72.578125 -82.375 L 72.578125 -45.5 Z M 105.40625 -45.5 "/></g></g></g><g fill="#da2f47" fill-opacity="1"><g transform="translate(1217.447079, 481.928262)"><g><path d="M 72.578125 -157.828125 L 72.578125 -124.703125 L 137.375 -124.703125 L 137.375 -81.796875 L 72.578125 -81.796875 L 72.578125 -45.21875 L 146.015625 -45.21875 L 146.015625 0 L 16.125 0 L 16.125 -203.046875 L 146.015625 -203.046875 L 146.015625 -157.828125 Z M 72.578125 -157.828125 "/></g></g></g><path fill="#da2f47" d="M 995.847656 340.589844 L 912.730469 204.609375 L 835.707031 339.660156 C 817.773438 368.28125 816.207031 405.492188 835.046875 436.3125 C 861.828125 480.121094 919.527344 494.1875 963.941406 467.761719 C 1008.335938 441.34375 1022.628906 384.433594 995.847656 340.589844 Z M 995.847656 340.589844 " fill-opacity="1" fill-rule="nonzero"/><path fill="#da2f47" d="M 327.148438 447.363281 C 305.179688 447.363281 287.308594 429.496094 287.308594 407.535156 C 287.308594 385.570312 305.179688 367.703125 327.148438 367.703125 C 349.117188 367.703125 366.988281 385.570312 366.988281 407.535156 C 366.988281 429.496094 349.117188 447.363281 327.148438 447.363281 Z M 327.148438 374.34375 C 308.84375 374.34375 293.949219 389.234375 293.949219 407.535156 C 293.949219 425.835938 308.839844 440.722656 327.148438 440.722656 C 345.453125 440.722656 360.347656 425.835938 360.347656 407.535156 C 360.347656 389.234375 345.453125 374.34375 327.148438 374.34375 Z M 327.148438 374.34375 " fill-opacity="1" fill-rule="nonzero"/><path fill="#da2f47" d="M 157.488281 421.855469 C 156.914062 421.855469 156.34375 421.707031 155.828125 421.414062 C 154.265625 420.515625 117.253906 399 89.277344 365.175781 C 88.109375 363.761719 88.308594 361.671875 89.71875 360.5 C 91.132812 359.335938 93.226562 359.535156 94.394531 360.945312 C 118.300781 389.851562 149.945312 410.0625 157.484375 414.664062 C 169.355469 407.398438 241.015625 361.296875 248.550781 303.097656 C 248.96875 300.558594 249.171875 298.117188 249.171875 295.730469 C 249.171875 271.375 229.351562 251.558594 204.988281 251.558594 C 203.152344 251.558594 201.667969 250.074219 201.667969 248.238281 C 201.667969 246.40625 203.152344 244.921875 204.988281 244.921875 C 233.011719 244.921875 255.8125 267.714844 255.8125 295.730469 C 255.8125 298.480469 255.582031 301.285156 255.121094 304.066406 C 246.535156 370.386719 162.707031 419.359375 159.140625 421.410156 C 158.628906 421.707031 158.058594 421.855469 157.488281 421.855469 Z M 157.488281 421.855469 " fill-opacity="1" fill-rule="nonzero"/><path fill="#da2f47" d="M 82.316406 353.757812 C 81.253906 353.757812 80.210938 353.25 79.570312 352.308594 C 68.53125 336.121094 61.890625 319.851562 59.832031 303.949219 C 59.390625 301.300781 59.160156 298.496094 59.160156 295.730469 C 59.160156 267.714844 81.957031 244.921875 109.980469 244.921875 C 111.816406 244.921875 113.300781 246.40625 113.300781 248.242188 C 113.300781 250.074219 111.816406 251.5625 109.980469 251.5625 C 85.617188 251.5625 65.800781 271.375 65.800781 295.730469 C 65.800781 298.132812 66 300.574219 66.402344 302.984375 C 68.34375 317.953125 74.613281 333.253906 85.058594 348.570312 C 86.089844 350.082031 85.699219 352.148438 84.183594 353.179688 C 83.609375 353.570312 82.960938 353.757812 82.316406 353.757812 Z M 82.316406 353.757812 " fill-opacity="1" fill-rule="nonzero"/><g clip-path="url(#6a90ad6acc)"><path fill="#da2f47" d="M 119.324219 260.839844 C 112.796875 260.839844 107.484375 255.53125 107.484375 249.003906 C 107.484375 242.480469 112.796875 237.167969 119.324219 237.167969 C 125.851562 237.167969 131.164062 242.480469 131.164062 249.003906 C 131.164062 255.53125 125.851562 260.839844 119.324219 260.839844 Z M 119.324219 243.808594 C 116.457031 243.808594 114.125 246.140625 114.125 249.007812 C 114.125 251.871094 116.457031 254.203125 119.324219 254.203125 C 122.191406 254.203125 124.523438 251.871094 124.523438 249.007812 C 124.523438 246.140625 122.191406 243.808594 119.324219 243.808594 Z M 119.324219 243.808594 " fill-opacity="1" fill-rule="nonzero"/></g><g clip-path="url(#dec0520845)"><path fill="#da2f47" d="M 195.15625 260.839844 C 188.628906 260.839844 183.316406 255.53125 183.316406 249.003906 C 183.316406 242.480469 188.628906 237.167969 195.15625 237.167969 C 201.683594 237.167969 206.996094 242.480469 206.996094 249.003906 C 206.996094 255.53125 201.683594 260.839844 195.15625 260.839844 Z M 195.15625 243.808594 C 192.289062 243.808594 189.957031 246.140625 189.957031 249.007812 C 189.957031 251.871094 192.289062 254.203125 195.15625 254.203125 C 198.023438 254.203125 200.355469 251.871094 200.355469 249.007812 C 200.355469 246.140625 198.023438 243.808594 195.15625 243.808594 Z M 195.15625 243.808594 " fill-opacity="1" fill-rule="nonzero"/></g><g clip-path="url(#0c990bd2dd)"><path fill="#da2f47" d="M 242.800781 525.1875 C 193.929688 525.1875 154.167969 485.4375 154.167969 436.582031 L 154.167969 418.84375 C 154.167969 417.007812 155.65625 415.523438 157.488281 415.523438 C 159.324219 415.523438 160.808594 417.007812 160.808594 418.84375 L 160.808594 436.582031 C 160.808594 481.777344 197.589844 518.546875 242.800781 518.546875 C 288.007812 518.546875 324.785156 481.777344 324.785156 436.582031 L 324.785156 418.84375 C 324.785156 417.007812 326.273438 415.523438 328.105469 415.523438 C 329.941406 415.523438 331.425781 417.007812 331.425781 418.84375 L 331.425781 436.582031 C 331.425781 485.4375 291.667969 525.1875 242.800781 525.1875 Z M 242.800781 525.1875 " fill-opacity="1" fill-rule="nonzero"/></g><path fill="#da2f47" d="M 326.316406 422.160156 C 318.058594 422.160156 311.335938 415.441406 311.335938 407.183594 C 311.335938 398.921875 318.058594 392.203125 326.316406 392.203125 C 334.578125 392.203125 341.296875 398.925781 341.296875 407.183594 C 341.296875 415.441406 334.578125 422.160156 326.316406 422.160156 Z M 326.316406 398.839844 C 321.71875 398.839844 317.976562 402.582031 317.976562 407.183594 C 317.976562 411.78125 321.71875 415.519531 326.316406 415.519531 C 330.914062 415.519531 334.65625 411.78125 334.65625 407.183594 C 334.65625 402.582031 330.914062 398.839844 326.316406 398.839844 Z M 326.316406 398.839844 " fill-opacity="1" fill-rule="nonzero"/><path fill="#da2f47" d="M 126.53125 374.34375 C 126.527344 374.34375 126.523438 374.34375 126.519531 374.34375 C 125.15625 374.339844 123.933594 373.5 123.4375 372.230469 L 111.464844 341.535156 L 105.6875 353 C 105.125 354.121094 103.976562 354.828125 102.722656 354.828125 L 62.480469 354.828125 C 60.644531 354.828125 59.160156 353.339844 59.160156 351.507812 C 59.160156 349.671875 60.644531 348.1875 62.480469 348.1875 L 100.675781 348.1875 L 108.886719 331.894531 C 109.476562 330.722656 110.710938 330.011719 112.007812 330.070312 C 113.316406 330.132812 114.46875 330.960938 114.945312 332.179688 L 126.5625 361.964844 L 141.921875 323.375 C 142.425781 322.113281 143.648438 321.285156 145.007812 321.285156 C 145.019531 321.285156 145.027344 321.285156 145.035156 321.285156 C 146.40625 321.292969 147.628906 322.144531 148.113281 323.425781 L 157.871094 349.144531 L 186.75 349.144531 C 188.585938 349.144531 190.070312 350.628906 190.070312 352.464844 C 190.070312 354.296875 188.585938 355.785156 186.75 355.785156 L 155.582031 355.785156 C 154.199219 355.785156 152.964844 354.933594 152.476562 353.644531 L 144.9375 333.765625 L 129.621094 372.25 C 129.113281 373.515625 127.890625 374.34375 126.53125 374.34375 Z M 126.53125 374.34375 " fill-opacity="1" fill-rule="nonzero"/><g fill="#ffffff" fill-opacity="1"><g transform="translate(405.120281, 589.903269)"><g><path d="M 29.9375 0.984375 C 25.632812 0.984375 21.769531 0.398438 18.34375 -0.765625 C 14.925781 -1.941406 12.078125 -3.484375 9.796875 -5.390625 C 7.515625 -7.296875 5.8125 -9.390625 4.6875 -11.671875 L 9.09375 -17.015625 L 10.265625 -17.015625 C 14.515625 -9.859375 21.070312 -6.28125 29.9375 -6.28125 C 35.09375 -6.28125 38.925781 -7.359375 41.4375 -9.515625 C 43.957031 -11.671875 45.21875 -14.671875 45.21875 -18.515625 C 45.21875 -20.765625 44.800781 -22.664062 43.96875 -24.21875 C 43.144531 -25.78125 41.78125 -27.113281 39.875 -28.21875 C 37.96875 -29.332031 35.375 -30.296875 32.09375 -31.109375 L 24.078125 -33.078125 C 18.117188 -34.515625 13.722656 -36.800781 10.890625 -39.9375 C 8.066406 -43.082031 6.65625 -47.0625 6.65625 -51.875 C 6.65625 -55.28125 7.53125 -58.316406 9.28125 -60.984375 C 11.03125 -63.660156 13.59375 -65.75 16.96875 -67.25 C 20.34375 -68.75 24.367188 -69.5 29.046875 -69.5 C 34.203125 -69.5 38.550781 -68.769531 42.09375 -67.3125 C 45.644531 -65.863281 48.484375 -63.6875 50.609375 -60.78125 L 46.671875 -55.484375 L 45.5 -55.484375 C 43.53125 -57.890625 41.203125 -59.65625 38.515625 -60.78125 C 35.828125 -61.90625 32.671875 -62.46875 29.046875 -62.46875 C 24.304688 -62.46875 20.722656 -61.546875 18.296875 -59.703125 C 15.878906 -57.859375 14.671875 -55.3125 14.671875 -52.0625 C 14.671875 -48.96875 15.5625 -46.503906 17.34375 -44.671875 C 19.125 -42.847656 22.117188 -41.4375 26.328125 -40.4375 L 34.53125 -38.46875 C 41.1875 -36.90625 46.003906 -34.503906 48.984375 -31.265625 C 51.972656 -28.035156 53.46875 -23.910156 53.46875 -18.890625 C 53.46875 -15.015625 52.597656 -11.582031 50.859375 -8.59375 C 49.128906 -5.613281 46.5 -3.269531 42.96875 -1.5625 C 39.4375 0.132812 35.09375 0.984375 29.9375 0.984375 Z M 29.9375 0.984375 "/></g></g></g><g fill="#ffffff" fill-opacity="1"><g transform="translate(487.447705, 589.903269)"><g><path d="M 61.671875 0 L 53.046875 0 L 46.71875 -18.796875 L 17.53125 -18.796875 L 11.15625 0 L 2.71875 0 L 26.609375 -68.515625 L 37.765625 -68.515625 Z M 31.53125 -60.21875 L 19.78125 -25.53125 L 44.421875 -25.53125 L 32.703125 -60.21875 Z M 31.53125 -60.21875 "/></g></g></g><g fill="#ffffff" fill-opacity="1"><g transform="translate(575.444734, 589.903269)"><g><path d="M 37.296875 0 L 26.703125 0 L 2.953125 -68.515625 L 11.53125 -68.515625 L 31.625 -10.078125 L 32.796875 -10.078125 L 52.671875 -68.515625 L 61.109375 -68.515625 Z M 37.296875 0 "/></g></g></g><g fill="#ffffff" fill-opacity="1"><g transform="translate(663.066909, 589.903269)"><g><path d="M 18.421875 0 L 10.359375 0 L 10.359375 -68.515625 L 18.421875 -68.515625 Z M 18.421875 0 "/></g></g></g><g fill="#ffffff" fill-opacity="1"><g transform="translate(715.499766, 589.903269)"><g><path d="M 18.234375 0 L 10.359375 0 L 10.359375 -68.515625 L 20.25 -68.515625 L 53.65625 -16.171875 L 54.828125 -16.359375 L 54.828125 -68.515625 L 62.65625 -68.515625 L 62.65625 0 L 54.21875 0 L 19.40625 -56 L 18.234375 -55.8125 Z M 18.234375 0 "/></g></g></g><g fill="#ffffff" fill-opacity="1"><g transform="translate(812.165337, 589.903269)"><g><path d="M 36.03125 0.984375 C 30.28125 0.984375 25.210938 -0.328125 20.828125 -2.953125 C 16.441406 -5.578125 13.015625 -9.53125 10.546875 -14.8125 C 8.078125 -20.09375 6.84375 -26.570312 6.84375 -34.25 C 6.84375 -41.9375 8.160156 -48.421875 10.796875 -53.703125 C 13.441406 -58.984375 17.101562 -62.9375 21.78125 -65.5625 C 26.46875 -68.1875 31.875 -69.5 38 -69.5 C 44.5625 -69.5 49.953125 -68.316406 54.171875 -65.953125 C 58.390625 -63.597656 61.375 -60.078125 63.125 -55.390625 L 57.875 -52.296875 L 56.703125 -52.296875 C 54.921875 -55.859375 52.515625 -58.410156 49.484375 -59.953125 C 46.453125 -61.503906 42.625 -62.28125 38 -62.28125 C 22.976562 -62.28125 15.46875 -52.9375 15.46875 -34.25 C 15.46875 -24.539062 17.351562 -17.453125 21.125 -12.984375 C 24.90625 -8.515625 30.203125 -6.28125 37.015625 -6.28125 C 43.265625 -6.28125 47.941406 -7.703125 51.046875 -10.546875 C 54.160156 -13.390625 55.71875 -17.875 55.71875 -24 L 55.71875 -30.03125 L 36.21875 -30.03125 L 36.21875 -36.5 L 63.546875 -36.5 L 63.546875 0 L 56.09375 0 L 56.09375 -9.1875 L 55.109375 -9.421875 C 53.296875 -5.890625 50.769531 -3.269531 47.53125 -1.5625 C 44.300781 0.132812 40.46875 0.984375 36.03125 0.984375 Z M 36.03125 0.984375 "/></g></g></g><g fill="#ffffff" fill-opacity="1"><g transform="translate(907.003443, 589.903269)"><g/></g></g><g fill="#ffffff" fill-opacity="1"><g transform="translate(954.141438, 589.903269)"><g><path d="M 18.421875 -68.515625 L 18.421875 -6.65625 L 51.40625 -6.65625 L 51.40625 0 L 10.359375 0 L 10.359375 -68.515625 Z M 18.421875 -68.515625 "/></g></g></g><g fill="#ffffff" fill-opacity="1"><g transform="translate(1032.064334, 589.903269)"><g><path d="M 18.421875 0 L 10.359375 0 L 10.359375 -68.515625 L 18.421875 -68.515625 Z M 18.421875 0 "/></g></g></g><g fill="#ffffff" fill-opacity="1"><g transform="translate(1084.49719, 589.903269)"><g><path d="M 18.421875 0 L 10.359375 0 L 10.359375 -68.515625 L 18.421875 -68.515625 Z M 18.421875 0 "/></g></g></g><g fill="#ffffff" fill-opacity="1"><g transform="translate(1136.930046, 589.903269)"><g><path d="M 37.296875 0 L 26.703125 0 L 2.953125 -68.515625 L 11.53125 -68.515625 L 31.625 -10.078125 L 32.796875 -10.078125 L 52.671875 -68.515625 L 61.109375 -68.515625 Z M 37.296875 0 "/></g></g></g><g fill="#ffffff" fill-opacity="1"><g transform="translate(1224.552221, 589.903269)"><g><path d="M 18.421875 -32.28125 L 18.421875 -6.65625 L 53.328125 -6.65625 L 53.328125 0 L 10.359375 0 L 10.359375 -68.515625 L 52.578125 -68.515625 L 52.578125 -61.859375 L 18.421875 -61.859375 L 18.421875 -38.9375 L 48.546875 -38.9375 L 48.546875 -32.28125 Z M 18.421875 -32.28125 "/></g></g></g><g fill="#ffffff" fill-opacity="1"><g transform="translate(1306.036225, 589.903269)"><g><path d="M 29.9375 0.984375 C 25.632812 0.984375 21.769531 0.398438 18.34375 -0.765625 C 14.925781 -1.941406 12.078125 -3.484375 9.796875 -5.390625 C 7.515625 -7.296875 5.8125 -9.390625 4.6875 -11.671875 L 9.09375 -17.015625 L 10.265625 -17.015625 C 14.515625 -9.859375 21.070312 -6.28125 29.9375 -6.28125 C 35.09375 -6.28125 38.925781 -7.359375 41.4375 -9.515625 C 43.957031 -11.671875 45.21875 -14.671875 45.21875 -18.515625 C 45.21875 -20.765625 44.800781 -22.664062 43.96875 -24.21875 C 43.144531 -25.78125 41.78125 -27.113281 39.875 -28.21875 C 37.96875 -29.332031 35.375 -30.296875 32.09375 -31.109375 L 24.078125 -33.078125 C 18.117188 -34.515625 13.722656 -36.800781 10.890625 -39.9375 C 8.066406 -43.082031 6.65625 -47.0625 6.65625 -51.875 C 6.65625 -55.28125 7.53125 -58.316406 9.28125 -60.984375 C 11.03125 -63.660156 13.59375 -65.75 16.96875 -67.25 C 20.34375 -68.75 24.367188 -69.5 29.046875 -69.5 C 34.203125 -69.5 38.550781 -68.769531 42.09375 -67.3125 C 45.644531 -65.863281 48.484375 -63.6875 50.609375 -60.78125 L 46.671875 -55.484375 L 45.5 -55.484375 C 43.53125 -57.890625 41.203125 -59.65625 38.515625 -60.78125 C 35.828125 -61.90625 32.671875 -62.46875 29.046875 -62.46875 C 24.304688 -62.46875 20.722656 -61.546875 18.296875 -59.703125 C 15.878906 -57.859375 14.671875 -55.3125 14.671875 -52.0625 C 14.671875 -48.96875 15.5625 -46.503906 17.34375 -44.671875 C 19.125 -42.847656 22.117188 -41.4375 26.328125 -40.4375 L 34.53125 -38.46875 C 41.1875 -36.90625 46.003906 -34.503906 48.984375 -31.265625 C 51.972656 -28.035156 53.46875 -23.910156 53.46875 -18.890625 C 53.46875 -15.015625 52.597656 -11.582031 50.859375 -8.59375 C 49.128906 -5.613281 46.5 -3.269531 42.96875 -1.5625 C 39.4375 0.132812 35.09375 0.984375 29.9375 0.984375 Z M 29.9375 0.984375 "/></g></g></g></svg>