<svg xmlns="http://www.w3.org/2000/svg" xmlns:xlink="http://www.w3.org/1999/xlink" width="200" zoomAndPan="magnify" viewBox="0 0 150 74.999997" height="100" preserveAspectRatio="xMidYMid meet" version="1.0"><defs><g/><clipPath id="7ebbd9e31d"><path d="M 61.140625 16.242188 L 82 16.242188 L 82 46 L 61.140625 46 Z M 61.140625 16.242188 " clip-rule="nonzero"/></clipPath><clipPath id="420a32c841"><path d="M 85.015625 16.242188 L 106 16.242188 L 106 46 L 85.015625 46 Z M 85.015625 16.242188 " clip-rule="nonzero"/></clipPath><clipPath id="ade0ac404d"><path d="M 30 33 L 38.390625 33 L 38.390625 42 L 30 42 Z M 30 33 " clip-rule="nonzero"/></clipPath><clipPath id="7e15140431"><path d="M 9 20.011719 L 27 20.011719 L 27 40 L 9 40 Z M 9 20.011719 " clip-rule="nonzero"/></clipPath><clipPath id="7e494ace9b"><path d="M 6.140625 20.011719 L 12 20.011719 L 12 33 L 6.140625 33 Z M 6.140625 20.011719 " clip-rule="nonzero"/></clipPath><clipPath id="7bcd4709e9"><path d="M 11 20.011719 L 14 20.011719 L 14 23 L 11 23 Z M 11 20.011719 " clip-rule="nonzero"/></clipPath><clipPath id="b3bf5a09af"><path d="M 19 20.011719 L 22 20.011719 L 22 23 L 19 23 Z M 19 20.011719 " clip-rule="nonzero"/></clipPath><clipPath id="d39ef9efba"><path d="M 16 38 L 35 38 L 35 50.011719 L 16 50.011719 Z M 16 38 " clip-rule="nonzero"/></clipPath><clipPath id="732bab4888"><path d="M 6.140625 28 L 20 28 L 20 35 L 6.140625 35 Z M 6.140625 28 " clip-rule="nonzero"/></clipPath></defs><g clip-path="url(#7ebbd9e31d)"><path fill="#da2f47" d="M 80.089844 30.703125 L 71.324219 16.625 L 63.203125 30.605469 C 61.3125 33.570312 61.148438 37.421875 63.132812 40.613281 C 65.957031 45.148438 72.042969 46.601562 76.726562 43.867188 C 81.40625 41.132812 82.914062 35.242188 80.089844 30.703125 Z M 80.089844 30.703125 " fill-opacity="1" fill-rule="nonzero"/></g><g fill="#da2f47" fill-opacity="1"><g transform="translate(41.077492, 45.513356)"><g><path d="M 8.09375 -4.765625 L 16.890625 -4.765625 L 16.890625 0 L 1.5 0 L 1.5 -4.46875 L 10.203125 -16.40625 L 1.5 -16.40625 L 1.5 -21.15625 L 16.890625 -21.15625 L 16.890625 -16.6875 Z M 8.09375 -4.765625 "/></g></g></g><g fill="#da2f47" fill-opacity="1"><g transform="translate(59.467471, 45.513356)"><g><path d="M 11.8125 0.203125 C 9.832031 0.203125 8.015625 -0.257812 6.359375 -1.1875 C 4.703125 -2.113281 3.382812 -3.398438 2.40625 -5.046875 C 1.4375 -6.703125 0.953125 -8.570312 0.953125 -10.65625 C 0.953125 -12.726562 1.4375 -14.585938 2.40625 -16.234375 C 3.382812 -17.890625 4.703125 -19.175781 6.359375 -20.09375 C 8.015625 -21.019531 9.832031 -21.484375 11.8125 -21.484375 C 13.8125 -21.484375 15.632812 -21.019531 17.28125 -20.09375 C 18.9375 -19.175781 20.242188 -17.890625 21.203125 -16.234375 C 22.171875 -14.585938 22.65625 -12.726562 22.65625 -10.65625 C 22.65625 -8.570312 22.171875 -6.703125 21.203125 -5.046875 C 20.242188 -3.398438 18.9375 -2.113281 17.28125 -1.1875 C 15.625 -0.257812 13.800781 0.203125 11.8125 0.203125 Z M 11.8125 -5.25 C 13.3125 -5.25 14.5 -5.738281 15.375 -6.71875 C 16.25 -7.695312 16.6875 -9.007812 16.6875 -10.65625 C 16.6875 -12.332031 16.25 -13.65625 15.375 -14.625 C 14.5 -15.59375 13.3125 -16.078125 11.8125 -16.078125 C 10.300781 -16.078125 9.113281 -15.59375 8.25 -14.625 C 7.382812 -13.65625 6.953125 -12.332031 6.953125 -10.65625 C 6.953125 -8.988281 7.382812 -7.671875 8.25 -6.703125 C 9.113281 -5.734375 10.300781 -5.25 11.8125 -5.25 Z M 11.8125 -5.25 "/></g></g></g><g fill="#da2f47" fill-opacity="1"><g transform="translate(83.077442, 45.513356)"><g><path d="M 11.8125 0.203125 C 9.832031 0.203125 8.015625 -0.257812 6.359375 -1.1875 C 4.703125 -2.113281 3.382812 -3.398438 2.40625 -5.046875 C 1.4375 -6.703125 0.953125 -8.570312 0.953125 -10.65625 C 0.953125 -12.726562 1.4375 -14.585938 2.40625 -16.234375 C 3.382812 -17.890625 4.703125 -19.175781 6.359375 -20.09375 C 8.015625 -21.019531 9.832031 -21.484375 11.8125 -21.484375 C 13.8125 -21.484375 15.632812 -21.019531 17.28125 -20.09375 C 18.9375 -19.175781 20.242188 -17.890625 21.203125 -16.234375 C 22.171875 -14.585938 22.65625 -12.726562 22.65625 -10.65625 C 22.65625 -8.570312 22.171875 -6.703125 21.203125 -5.046875 C 20.242188 -3.398438 18.9375 -2.113281 17.28125 -1.1875 C 15.625 -0.257812 13.800781 0.203125 11.8125 0.203125 Z M 11.8125 -5.25 C 13.3125 -5.25 14.5 -5.738281 15.375 -6.71875 C 16.25 -7.695312 16.6875 -9.007812 16.6875 -10.65625 C 16.6875 -12.332031 16.25 -13.65625 15.375 -14.625 C 14.5 -15.59375 13.3125 -16.078125 11.8125 -16.078125 C 10.300781 -16.078125 9.113281 -15.59375 8.25 -14.625 C 7.382812 -13.65625 6.953125 -12.332031 6.953125 -10.65625 C 6.953125 -8.988281 7.382812 -7.671875 8.25 -6.703125 C 9.113281 -5.734375 10.300781 -5.25 11.8125 -5.25 Z M 11.8125 -5.25 "/></g></g></g><g fill="#da2f47" fill-opacity="1"><g transform="translate(106.687414, 45.513356)"><g><path d="M 15.1875 -10.859375 C 16.425781 -10.578125 17.410156 -9.960938 18.140625 -9.015625 C 18.867188 -8.066406 19.234375 -6.984375 19.234375 -5.765625 C 19.234375 -3.960938 18.613281 -2.550781 17.375 -1.53125 C 16.132812 -0.507812 14.394531 0 12.15625 0 L 1.6875 0 L 1.6875 -21.15625 L 11.8125 -21.15625 C 13.976562 -21.15625 15.675781 -20.671875 16.90625 -19.703125 C 18.132812 -18.742188 18.75 -17.394531 18.75 -15.65625 C 18.75 -14.414062 18.421875 -13.378906 17.765625 -12.546875 C 17.117188 -11.722656 16.257812 -11.160156 15.1875 -10.859375 Z M 7.5625 -12.75 L 10.53125 -12.75 C 12.007812 -12.75 12.75 -13.359375 12.75 -14.578125 C 12.75 -15.835938 12.007812 -16.46875 10.53125 -16.46875 L 7.5625 -16.46875 Z M 10.984375 -4.734375 C 12.460938 -4.734375 13.203125 -5.351562 13.203125 -6.59375 C 13.203125 -7.238281 13.003906 -7.726562 12.609375 -8.0625 C 12.222656 -8.40625 11.671875 -8.578125 10.953125 -8.578125 L 7.5625 -8.578125 L 7.5625 -4.734375 Z M 10.984375 -4.734375 "/></g></g></g><g fill="#da2f47" fill-opacity="1"><g transform="translate(126.817398, 45.513356)"><g><path d="M 7.5625 -16.4375 L 7.5625 -12.984375 L 14.3125 -12.984375 L 14.3125 -8.515625 L 7.5625 -8.515625 L 7.5625 -4.703125 L 15.203125 -4.703125 L 15.203125 0 L 1.6875 0 L 1.6875 -21.15625 L 15.203125 -21.15625 L 15.203125 -16.4375 Z M 7.5625 -16.4375 "/></g></g></g><g clip-path="url(#420a32c841)"><path fill="#da2f47" d="M 103.964844 30.703125 L 95.199219 16.625 L 87.078125 30.605469 C 85.1875 33.570312 85.023438 37.421875 87.007812 40.613281 C 89.832031 45.148438 95.917969 46.601562 100.601562 43.867188 C 105.28125 41.132812 106.789062 35.242188 103.964844 30.703125 Z M 103.964844 30.703125 " fill-opacity="1" fill-rule="nonzero"/></g><g clip-path="url(#ade0ac404d)"><path fill="#da2f47" d="M 34.203125 41.914062 C 31.902344 41.914062 30.03125 40.050781 30.03125 37.765625 C 30.03125 35.476562 31.902344 33.613281 34.203125 33.613281 C 36.5 33.613281 38.371094 35.476562 38.371094 37.765625 C 38.371094 40.050781 36.5 41.914062 34.203125 41.914062 Z M 34.203125 34.308594 C 32.285156 34.308594 30.726562 35.859375 30.726562 37.765625 C 30.726562 39.671875 32.285156 41.222656 34.203125 41.222656 C 36.117188 41.222656 37.675781 39.671875 37.675781 37.765625 C 37.675781 35.859375 36.117188 34.308594 34.203125 34.308594 Z M 34.203125 34.308594 " fill-opacity="1" fill-rule="nonzero"/></g><g clip-path="url(#7e15140431)"><path fill="#da2f47" d="M 16.449219 39.253906 C 16.390625 39.253906 16.328125 39.242188 16.277344 39.210938 C 16.113281 39.117188 12.238281 36.875 9.3125 33.351562 C 9.191406 33.203125 9.210938 32.988281 9.359375 32.863281 C 9.507812 32.742188 9.726562 32.765625 9.847656 32.910156 C 12.347656 35.921875 15.660156 38.027344 16.449219 38.507812 C 17.691406 37.75 25.1875 32.949219 25.976562 26.886719 C 26.019531 26.621094 26.042969 26.367188 26.042969 26.117188 C 26.042969 23.582031 23.96875 21.515625 21.417969 21.515625 C 21.226562 21.515625 21.070312 21.363281 21.070312 21.171875 C 21.070312 20.980469 21.226562 20.824219 21.417969 20.824219 C 24.351562 20.824219 26.738281 23.199219 26.738281 26.117188 C 26.738281 26.402344 26.714844 26.695312 26.664062 26.984375 C 25.765625 33.894531 16.996094 38.996094 16.621094 39.210938 C 16.570312 39.242188 16.507812 39.253906 16.449219 39.253906 Z M 16.449219 39.253906 " fill-opacity="1" fill-rule="nonzero"/></g><g clip-path="url(#7e494ace9b)"><path fill="#da2f47" d="M 8.582031 32.164062 C 8.472656 32.164062 8.363281 32.109375 8.296875 32.011719 C 7.140625 30.324219 6.445312 28.628906 6.230469 26.972656 C 6.183594 26.699219 6.160156 26.40625 6.160156 26.117188 C 6.160156 23.199219 8.546875 20.824219 11.480469 20.824219 C 11.671875 20.824219 11.824219 20.980469 11.824219 21.171875 C 11.824219 21.363281 11.671875 21.515625 11.480469 21.515625 C 8.929688 21.515625 6.855469 23.582031 6.855469 26.117188 C 6.855469 26.367188 6.875 26.621094 6.917969 26.875 C 7.121094 28.433594 7.777344 30.027344 8.871094 31.621094 C 8.980469 31.78125 8.9375 31.996094 8.777344 32.101562 C 8.71875 32.144531 8.652344 32.164062 8.582031 32.164062 Z M 8.582031 32.164062 " fill-opacity="1" fill-rule="nonzero"/></g><g clip-path="url(#7bcd4709e9)"><path fill="#da2f47" d="M 12.457031 22.484375 C 11.773438 22.484375 11.21875 21.929688 11.21875 21.25 C 11.21875 20.570312 11.773438 20.015625 12.457031 20.015625 C 13.140625 20.015625 13.695312 20.570312 13.695312 21.25 C 13.695312 21.929688 13.140625 22.484375 12.457031 22.484375 Z M 12.457031 20.710938 C 12.15625 20.710938 11.914062 20.953125 11.914062 21.25 C 11.914062 21.550781 12.15625 21.792969 12.457031 21.792969 C 12.757812 21.792969 13 21.550781 13 21.25 C 13 20.953125 12.757812 20.710938 12.457031 20.710938 Z M 12.457031 20.710938 " fill-opacity="1" fill-rule="nonzero"/></g><g clip-path="url(#b3bf5a09af)"><path fill="#da2f47" d="M 20.390625 22.484375 C 19.707031 22.484375 19.152344 21.929688 19.152344 21.25 C 19.152344 20.570312 19.707031 20.015625 20.390625 20.015625 C 21.074219 20.015625 21.628906 20.570312 21.628906 21.25 C 21.628906 21.929688 21.074219 22.484375 20.390625 22.484375 Z M 20.390625 20.710938 C 20.089844 20.710938 19.847656 20.953125 19.847656 21.25 C 19.847656 21.550781 20.089844 21.792969 20.390625 21.792969 C 20.691406 21.792969 20.933594 21.550781 20.933594 21.25 C 20.933594 20.953125 20.691406 20.710938 20.390625 20.710938 Z M 20.390625 20.710938 " fill-opacity="1" fill-rule="nonzero"/></g><g clip-path="url(#d39ef9efba)"><path fill="#da2f47" d="M 25.375 50.019531 C 20.261719 50.019531 16.101562 45.878906 16.101562 40.789062 L 16.101562 38.941406 C 16.101562 38.75 16.257812 38.597656 16.449219 38.597656 C 16.640625 38.597656 16.796875 38.75 16.796875 38.941406 L 16.796875 40.789062 C 16.796875 45.496094 20.644531 49.328125 25.375 49.328125 C 30.105469 49.328125 33.953125 45.496094 33.953125 40.789062 L 33.953125 38.941406 C 33.953125 38.75 34.109375 38.597656 34.300781 38.597656 C 34.492188 38.597656 34.648438 38.75 34.648438 38.941406 L 34.648438 40.789062 C 34.648438 45.878906 30.488281 50.019531 25.375 50.019531 Z M 25.375 50.019531 " fill-opacity="1" fill-rule="nonzero"/></g><path fill="#da2f47" d="M 34.113281 39.289062 C 33.25 39.289062 32.546875 38.585938 32.546875 37.726562 C 32.546875 36.867188 33.25 36.167969 34.113281 36.167969 C 34.980469 36.167969 35.683594 36.867188 35.683594 37.726562 C 35.683594 38.585938 34.980469 39.289062 34.113281 39.289062 Z M 34.113281 36.859375 C 33.632812 36.859375 33.242188 37.25 33.242188 37.726562 C 33.242188 38.207031 33.632812 38.597656 34.113281 38.597656 C 34.59375 38.597656 34.988281 38.207031 34.988281 37.726562 C 34.988281 37.25 34.59375 36.859375 34.113281 36.859375 Z M 34.113281 36.859375 " fill-opacity="1" fill-rule="nonzero"/><g clip-path="url(#732bab4888)"><path fill="#da2f47" d="M 13.210938 34.308594 C 13.066406 34.304688 12.9375 34.21875 12.886719 34.085938 L 11.632812 30.890625 L 11.03125 32.082031 C 10.96875 32.199219 10.851562 32.273438 10.71875 32.273438 L 6.507812 32.273438 C 6.316406 32.273438 6.160156 32.117188 6.160156 31.929688 C 6.160156 31.738281 6.316406 31.582031 6.507812 31.582031 L 10.503906 31.582031 L 11.363281 29.886719 C 11.425781 29.761719 11.554688 29.6875 11.691406 29.695312 C 11.828125 29.703125 11.949219 29.789062 11.996094 29.914062 L 13.214844 33.015625 L 14.820312 28.996094 C 14.875 28.867188 15 28.78125 15.144531 28.78125 C 15.144531 28.78125 15.144531 28.78125 15.148438 28.78125 C 15.289062 28.78125 15.417969 28.871094 15.46875 29.003906 L 16.488281 31.683594 L 19.511719 31.683594 C 19.703125 31.683594 19.859375 31.835938 19.859375 32.027344 C 19.859375 32.21875 19.703125 32.375 19.511719 32.375 L 16.25 32.375 C 16.105469 32.375 15.976562 32.285156 15.925781 32.148438 L 15.136719 30.078125 L 13.535156 34.089844 C 13.480469 34.21875 13.351562 34.308594 13.210938 34.308594 Z M 13.210938 34.308594 " fill-opacity="1" fill-rule="nonzero"/></g><g fill="#ffffff" fill-opacity="1"><g transform="translate(42.200031, 56.760753)"><g><path d="M 3.125 0.109375 C 2.675781 0.109375 2.269531 0.046875 1.90625 -0.078125 C 1.550781 -0.203125 1.253906 -0.363281 1.015625 -0.5625 C 0.785156 -0.757812 0.609375 -0.976562 0.484375 -1.21875 L 0.953125 -1.765625 L 1.0625 -1.765625 C 1.507812 -1.023438 2.195312 -0.65625 3.125 -0.65625 C 3.65625 -0.65625 4.050781 -0.765625 4.3125 -0.984375 C 4.582031 -1.210938 4.71875 -1.523438 4.71875 -1.921875 C 4.71875 -2.160156 4.671875 -2.359375 4.578125 -2.515625 C 4.492188 -2.679688 4.351562 -2.820312 4.15625 -2.9375 C 3.957031 -3.050781 3.6875 -3.15625 3.34375 -3.25 L 2.515625 -3.453125 C 1.890625 -3.597656 1.425781 -3.832031 1.125 -4.15625 C 0.832031 -4.488281 0.6875 -4.90625 0.6875 -5.40625 C 0.6875 -5.757812 0.773438 -6.070312 0.953125 -6.34375 C 1.140625 -6.625 1.410156 -6.84375 1.765625 -7 C 2.117188 -7.15625 2.539062 -7.234375 3.03125 -7.234375 C 3.5625 -7.234375 4.007812 -7.15625 4.375 -7 C 4.75 -6.851562 5.050781 -6.628906 5.28125 -6.328125 L 4.859375 -5.78125 L 4.734375 -5.78125 C 4.535156 -6.03125 4.296875 -6.210938 4.015625 -6.328125 C 3.734375 -6.453125 3.40625 -6.515625 3.03125 -6.515625 C 2.53125 -6.515625 2.15625 -6.414062 1.90625 -6.21875 C 1.65625 -6.03125 1.53125 -5.765625 1.53125 -5.421875 C 1.53125 -5.097656 1.617188 -4.84375 1.796875 -4.65625 C 1.984375 -4.46875 2.300781 -4.320312 2.75 -4.21875 L 3.59375 -4.015625 C 4.289062 -3.847656 4.796875 -3.59375 5.109375 -3.25 C 5.421875 -2.914062 5.578125 -2.488281 5.578125 -1.96875 C 5.578125 -1.5625 5.484375 -1.203125 5.296875 -0.890625 C 5.117188 -0.585938 4.84375 -0.34375 4.46875 -0.15625 C 4.101562 0.0195312 3.65625 0.109375 3.125 0.109375 Z M 3.125 0.109375 "/></g></g></g><g fill="#ffffff" fill-opacity="1"><g transform="translate(50.775804, 56.760753)"><g><path d="M 6.421875 0 L 5.53125 0 L 4.875 -1.953125 L 1.828125 -1.953125 L 1.15625 0 L 0.28125 0 L 2.78125 -7.140625 L 3.9375 -7.140625 Z M 3.28125 -6.28125 L 2.0625 -2.65625 L 4.625 -2.65625 L 3.40625 -6.28125 Z M 3.28125 -6.28125 "/></g></g></g><g fill="#ffffff" fill-opacity="1"><g transform="translate(59.94216, 56.760753)"><g><path d="M 3.890625 0 L 2.78125 0 L 0.3125 -7.140625 L 1.203125 -7.140625 L 3.296875 -1.046875 L 3.421875 -1.046875 L 5.484375 -7.140625 L 6.375 -7.140625 Z M 3.890625 0 "/></g></g></g><g fill="#ffffff" fill-opacity="1"><g transform="translate(69.069469, 56.760753)"><g><path d="M 1.921875 0 L 1.078125 0 L 1.078125 -7.140625 L 1.921875 -7.140625 Z M 1.921875 0 "/></g></g></g><g fill="#ffffff" fill-opacity="1"><g transform="translate(74.531224, 56.760753)"><g><path d="M 1.90625 0 L 1.078125 0 L 1.078125 -7.140625 L 2.109375 -7.140625 L 5.59375 -1.6875 L 5.71875 -1.703125 L 5.71875 -7.140625 L 6.53125 -7.140625 L 6.53125 0 L 5.65625 0 L 2.015625 -5.828125 L 1.90625 -5.8125 Z M 1.90625 0 "/></g></g></g><g fill="#ffffff" fill-opacity="1"><g transform="translate(84.600554, 56.760753)"><g><path d="M 3.75 0.109375 C 3.15625 0.109375 2.628906 -0.0234375 2.171875 -0.296875 C 1.710938 -0.578125 1.351562 -0.992188 1.09375 -1.546875 C 0.84375 -2.097656 0.71875 -2.769531 0.71875 -3.5625 C 0.71875 -4.363281 0.851562 -5.039062 1.125 -5.59375 C 1.394531 -6.144531 1.773438 -6.554688 2.265625 -6.828125 C 2.753906 -7.097656 3.316406 -7.234375 3.953125 -7.234375 C 4.640625 -7.234375 5.203125 -7.109375 5.640625 -6.859375 C 6.078125 -6.617188 6.390625 -6.253906 6.578125 -5.765625 L 6.03125 -5.453125 L 5.90625 -5.453125 C 5.71875 -5.816406 5.46875 -6.078125 5.15625 -6.234375 C 4.84375 -6.398438 4.441406 -6.484375 3.953125 -6.484375 C 2.390625 -6.484375 1.609375 -5.507812 1.609375 -3.5625 C 1.609375 -2.550781 1.804688 -1.8125 2.203125 -1.34375 C 2.597656 -0.882812 3.148438 -0.65625 3.859375 -0.65625 C 4.503906 -0.65625 4.988281 -0.800781 5.3125 -1.09375 C 5.644531 -1.394531 5.8125 -1.863281 5.8125 -2.5 L 5.8125 -3.125 L 3.78125 -3.125 L 3.78125 -3.796875 L 6.625 -3.796875 L 6.625 0 L 5.84375 0 L 5.84375 -0.953125 L 5.75 -0.984375 C 5.550781 -0.617188 5.285156 -0.34375 4.953125 -0.15625 C 4.617188 0.0195312 4.21875 0.109375 3.75 0.109375 Z M 3.75 0.109375 "/></g></g></g><g fill="#ffffff" fill-opacity="1"><g transform="translate(94.479522, 56.760753)"><g/></g></g><g fill="#ffffff" fill-opacity="1"><g transform="translate(99.38973, 56.760753)"><g><path d="M 1.921875 -7.140625 L 1.921875 -0.6875 L 5.359375 -0.6875 L 5.359375 0 L 1.078125 0 L 1.078125 -7.140625 Z M 1.921875 -7.140625 "/></g></g></g><g fill="#ffffff" fill-opacity="1"><g transform="translate(107.506697, 56.760753)"><g><path d="M 1.921875 0 L 1.078125 0 L 1.078125 -7.140625 L 1.921875 -7.140625 Z M 1.921875 0 "/></g></g></g><g fill="#ffffff" fill-opacity="1"><g transform="translate(112.968452, 56.760753)"><g><path d="M 1.921875 0 L 1.078125 0 L 1.078125 -7.140625 L 1.921875 -7.140625 Z M 1.921875 0 "/></g></g></g><g fill="#ffffff" fill-opacity="1"><g transform="translate(118.430208, 56.760753)"><g><path d="M 3.890625 0 L 2.78125 0 L 0.3125 -7.140625 L 1.203125 -7.140625 L 3.296875 -1.046875 L 3.421875 -1.046875 L 5.484375 -7.140625 L 6.375 -7.140625 Z M 3.890625 0 "/></g></g></g><g fill="#ffffff" fill-opacity="1"><g transform="translate(127.557517, 56.760753)"><g><path d="M 1.921875 -3.359375 L 1.921875 -0.6875 L 5.5625 -0.6875 L 5.5625 0 L 1.078125 0 L 1.078125 -7.140625 L 5.484375 -7.140625 L 5.484375 -6.453125 L 1.921875 -6.453125 L 1.921875 -4.0625 L 5.0625 -4.0625 L 5.0625 -3.359375 Z M 1.921875 -3.359375 "/></g></g></g><g fill="#ffffff" fill-opacity="1"><g transform="translate(136.045433, 56.760753)"><g><path d="M 3.125 0.109375 C 2.675781 0.109375 2.269531 0.046875 1.90625 -0.078125 C 1.550781 -0.203125 1.253906 -0.363281 1.015625 -0.5625 C 0.785156 -0.757812 0.609375 -0.976562 0.484375 -1.21875 L 0.953125 -1.765625 L 1.0625 -1.765625 C 1.507812 -1.023438 2.195312 -0.65625 3.125 -0.65625 C 3.65625 -0.65625 4.050781 -0.765625 4.3125 -0.984375 C 4.582031 -1.210938 4.71875 -1.523438 4.71875 -1.921875 C 4.71875 -2.160156 4.671875 -2.359375 4.578125 -2.515625 C 4.492188 -2.679688 4.351562 -2.820312 4.15625 -2.9375 C 3.957031 -3.050781 3.6875 -3.15625 3.34375 -3.25 L 2.515625 -3.453125 C 1.890625 -3.597656 1.425781 -3.832031 1.125 -4.15625 C 0.832031 -4.488281 0.6875 -4.90625 0.6875 -5.40625 C 0.6875 -5.757812 0.773438 -6.070312 0.953125 -6.34375 C 1.140625 -6.625 1.410156 -6.84375 1.765625 -7 C 2.117188 -7.15625 2.539062 -7.234375 3.03125 -7.234375 C 3.5625 -7.234375 4.007812 -7.15625 4.375 -7 C 4.75 -6.851562 5.050781 -6.628906 5.28125 -6.328125 L 4.859375 -5.78125 L 4.734375 -5.78125 C 4.535156 -6.03125 4.296875 -6.210938 4.015625 -6.328125 C 3.734375 -6.453125 3.40625 -6.515625 3.03125 -6.515625 C 2.53125 -6.515625 2.15625 -6.414062 1.90625 -6.21875 C 1.65625 -6.03125 1.53125 -5.765625 1.53125 -5.421875 C 1.53125 -5.097656 1.617188 -4.84375 1.796875 -4.65625 C 1.984375 -4.46875 2.300781 -4.320312 2.75 -4.21875 L 3.59375 -4.015625 C 4.289062 -3.847656 4.796875 -3.59375 5.109375 -3.25 C 5.421875 -2.914062 5.578125 -2.488281 5.578125 -1.96875 C 5.578125 -1.5625 5.484375 -1.203125 5.296875 -0.890625 C 5.117188 -0.585938 4.84375 -0.34375 4.46875 -0.15625 C 4.101562 0.0195312 3.65625 0.109375 3.125 0.109375 Z M 3.125 0.109375 "/></g></g></g></svg>